<mxfile host="app.diagrams.net" agent="Mozilla/5.0 (Windows NT 10.0; Win64; x64) AppleWebKit/537.36 (KHTML, like Gecko) Chrome/137.0.0.0 Safari/537.36" version="27.2.0">
  <diagram name="Page-1" id="GK8I5IstrXwzTvI08g6W">
    <mxGraphModel dx="3432" dy="2574" grid="1" gridSize="10" guides="1" tooltips="1" connect="1" arrows="1" fold="1" page="1" pageScale="1" pageWidth="827" pageHeight="1169" math="0" shadow="0">
      <root>
        <mxCell id="0" />
        <mxCell id="1" parent="0" />
        <mxCell id="AGb_sH1yF5Gb_Zde1yTd-3" value="APP" style="rounded=0;whiteSpace=wrap;html=1;labelBackgroundColor=none;fillColor=#dae8fc;strokeColor=#6c8ebf;" parent="1" vertex="1">
          <mxGeometry x="210" y="254.38" width="140" height="45.62" as="geometry" />
        </mxCell>
        <mxCell id="AGb_sH1yF5Gb_Zde1yTd-7" value="requires" style="rhombus;whiteSpace=wrap;html=1;rounded=0;labelBackgroundColor=none;fillColor=#d5e8d4;strokeColor=#82b366;" parent="1" vertex="1">
          <mxGeometry x="640" y="182.03" width="105" height="90.37" as="geometry" />
        </mxCell>
        <mxCell id="APLr1EpxhJmE-3xwTRBo-6" value="PERMISSION" style="rounded=0;whiteSpace=wrap;html=1;labelBackgroundColor=none;fillColor=#dae8fc;strokeColor=#6c8ebf;" parent="1" vertex="1">
          <mxGeometry x="1045" y="214.25" width="120" height="25.94" as="geometry" />
        </mxCell>
        <mxCell id="APLr1EpxhJmE-3xwTRBo-24" value="" style="endArrow=none;html=1;rounded=0;entryX=0;entryY=0.5;entryDx=0;entryDy=0;labelBackgroundColor=none;fontColor=default;exitX=1;exitY=0.5;exitDx=0;exitDy=0;" parent="1" source="AGb_sH1yF5Gb_Zde1yTd-7" target="APLr1EpxhJmE-3xwTRBo-6" edge="1">
          <mxGeometry width="50" height="50" relative="1" as="geometry">
            <mxPoint x="876.7747502540574" y="187.88558273403714" as="sourcePoint" />
            <mxPoint x="730.7106781186548" y="270" as="targetPoint" />
          </mxGeometry>
        </mxCell>
        <mxCell id="APLr1EpxhJmE-3xwTRBo-29" value="" style="endArrow=none;html=1;rounded=0;entryX=0;entryY=0.5;entryDx=0;entryDy=0;exitX=1;exitY=0;exitDx=0;exitDy=0;labelBackgroundColor=none;fontColor=default;" parent="1" source="AGb_sH1yF5Gb_Zde1yTd-3" target="AGb_sH1yF5Gb_Zde1yTd-7" edge="1">
          <mxGeometry width="50" height="50" relative="1" as="geometry">
            <mxPoint x="320" y="269" as="sourcePoint" />
            <mxPoint x="340" y="125" as="targetPoint" />
            <Array as="points">
              <mxPoint x="480" y="220" />
            </Array>
          </mxGeometry>
        </mxCell>
        <mxCell id="APLr1EpxhJmE-3xwTRBo-41" value="app_belongs_to" style="rhombus;whiteSpace=wrap;html=1;rounded=0;labelBackgroundColor=none;fillColor=#d5e8d4;strokeColor=#82b366;" parent="1" vertex="1">
          <mxGeometry x="640" y="71.48" width="110" height="78.52" as="geometry" />
        </mxCell>
        <mxCell id="APLr1EpxhJmE-3xwTRBo-42" value="CATEGORY" style="rounded=0;whiteSpace=wrap;html=1;labelBackgroundColor=none;fillColor=#dae8fc;strokeColor=#6c8ebf;" parent="1" vertex="1">
          <mxGeometry x="1045" y="89.96" width="120" height="31.56" as="geometry" />
        </mxCell>
        <mxCell id="APLr1EpxhJmE-3xwTRBo-44" value="" style="endArrow=none;html=1;rounded=0;exitX=0.577;exitY=0.126;exitDx=0;exitDy=0;exitPerimeter=0;labelBackgroundColor=none;fontColor=default;entryX=0;entryY=0.5;entryDx=0;entryDy=0;" parent="1" source="AGb_sH1yF5Gb_Zde1yTd-3" target="APLr1EpxhJmE-3xwTRBo-41" edge="1">
          <mxGeometry width="50" height="50" relative="1" as="geometry">
            <mxPoint x="290" y="254.38" as="sourcePoint" />
            <mxPoint x="420" y="70" as="targetPoint" />
            <Array as="points">
              <mxPoint x="370" y="110" />
            </Array>
          </mxGeometry>
        </mxCell>
        <mxCell id="APLr1EpxhJmE-3xwTRBo-47" value="" style="endArrow=none;html=1;rounded=0;exitX=1;exitY=0.5;exitDx=0;exitDy=0;labelBackgroundColor=none;fontColor=default;entryX=0;entryY=0.5;entryDx=0;entryDy=0;" parent="1" source="APLr1EpxhJmE-3xwTRBo-41" target="APLr1EpxhJmE-3xwTRBo-42" edge="1">
          <mxGeometry width="50" height="50" relative="1" as="geometry">
            <mxPoint x="660" y="220" as="sourcePoint" />
            <mxPoint x="710" y="170" as="targetPoint" />
          </mxGeometry>
        </mxCell>
        <mxCell id="APLr1EpxhJmE-3xwTRBo-51" value="releases" style="rhombus;whiteSpace=wrap;html=1;rounded=0;labelBackgroundColor=none;fillColor=#d5e8d4;strokeColor=#82b366;" parent="1" vertex="1">
          <mxGeometry x="125" y="9.999999999999996" width="65" height="70.55" as="geometry" />
        </mxCell>
        <mxCell id="APLr1EpxhJmE-3xwTRBo-52" value="APP_VERSION" style="rounded=0;whiteSpace=wrap;html=1;labelBackgroundColor=none;fillColor=#dae8fc;strokeColor=#6c8ebf;" parent="1" vertex="1">
          <mxGeometry x="189.5" y="-96" width="180" height="28" as="geometry" />
        </mxCell>
        <mxCell id="APLr1EpxhJmE-3xwTRBo-54" value="" style="endArrow=none;html=1;rounded=0;labelBackgroundColor=none;fontColor=default;entryX=0.368;entryY=1.006;entryDx=0;entryDy=0;entryPerimeter=0;" parent="1" source="APLr1EpxhJmE-3xwTRBo-51" target="APLr1EpxhJmE-3xwTRBo-52" edge="1">
          <mxGeometry width="50" height="50" relative="1" as="geometry">
            <mxPoint x="230" y="144.06" as="sourcePoint" />
            <mxPoint x="240" y="-50" as="targetPoint" />
          </mxGeometry>
        </mxCell>
        <mxCell id="APLr1EpxhJmE-3xwTRBo-58" value="DEVLOPER" style="rounded=0;whiteSpace=wrap;html=1;labelBackgroundColor=none;fillColor=#dae8fc;strokeColor=#6c8ebf;" parent="1" vertex="1">
          <mxGeometry x="-100" y="-30" width="110" height="40" as="geometry" />
        </mxCell>
        <mxCell id="APLr1EpxhJmE-3xwTRBo-67" value="USERS" style="rounded=0;whiteSpace=wrap;html=1;labelBackgroundColor=none;fillColor=#dae8fc;strokeColor=#6c8ebf;" parent="1" vertex="1">
          <mxGeometry x="-490" y="620" width="120" height="40" as="geometry" />
        </mxCell>
        <mxCell id="APLr1EpxhJmE-3xwTRBo-68" value="writes" style="rhombus;whiteSpace=wrap;html=1;rounded=0;labelBackgroundColor=none;fillColor=#d5e8d4;strokeColor=#82b366;" parent="1" vertex="1">
          <mxGeometry x="-100" y="610" width="60" height="60" as="geometry" />
        </mxCell>
        <mxCell id="APLr1EpxhJmE-3xwTRBo-69" value="REVIEW" style="rounded=0;whiteSpace=wrap;html=1;labelBackgroundColor=none;fillColor=#dae8fc;strokeColor=#6c8ebf;" parent="1" vertex="1">
          <mxGeometry x="230" y="620" width="100" height="40" as="geometry" />
        </mxCell>
        <mxCell id="APLr1EpxhJmE-3xwTRBo-70" value="" style="endArrow=none;html=1;rounded=0;exitX=1;exitY=0.5;exitDx=0;exitDy=0;labelBackgroundColor=none;fontColor=default;" parent="1" source="APLr1EpxhJmE-3xwTRBo-67" target="APLr1EpxhJmE-3xwTRBo-68" edge="1">
          <mxGeometry width="50" height="50" relative="1" as="geometry">
            <mxPoint x="20" y="530" as="sourcePoint" />
            <mxPoint x="70" y="480" as="targetPoint" />
          </mxGeometry>
        </mxCell>
        <mxCell id="APLr1EpxhJmE-3xwTRBo-71" value="" style="endArrow=none;html=1;rounded=0;entryX=0;entryY=0.5;entryDx=0;entryDy=0;labelBackgroundColor=none;fontColor=default;exitX=1;exitY=0.5;exitDx=0;exitDy=0;" parent="1" source="APLr1EpxhJmE-3xwTRBo-68" target="APLr1EpxhJmE-3xwTRBo-69" edge="1">
          <mxGeometry width="50" height="50" relative="1" as="geometry">
            <mxPoint x="130" y="480" as="sourcePoint" />
            <mxPoint x="180" y="430" as="targetPoint" />
          </mxGeometry>
        </mxCell>
        <mxCell id="APLr1EpxhJmE-3xwTRBo-72" value="reviews" style="rhombus;whiteSpace=wrap;html=1;rounded=0;labelBackgroundColor=none;fillColor=#d5e8d4;strokeColor=#82b366;" parent="1" vertex="1">
          <mxGeometry x="250" y="457.5" width="60" height="62.5" as="geometry" />
        </mxCell>
        <mxCell id="APLr1EpxhJmE-3xwTRBo-73" value="" style="endArrow=none;html=1;rounded=0;exitX=0.5;exitY=0;exitDx=0;exitDy=0;entryX=0.5;entryY=1;entryDx=0;entryDy=0;labelBackgroundColor=none;fontColor=default;" parent="1" source="APLr1EpxhJmE-3xwTRBo-69" target="APLr1EpxhJmE-3xwTRBo-72" edge="1">
          <mxGeometry width="50" height="50" relative="1" as="geometry">
            <mxPoint x="220" y="440" as="sourcePoint" />
            <mxPoint x="270" y="410" as="targetPoint" />
          </mxGeometry>
        </mxCell>
        <mxCell id="APLr1EpxhJmE-3xwTRBo-93" value="intiates" style="rhombus;whiteSpace=wrap;html=1;rounded=0;labelBackgroundColor=none;fillColor=#d5e8d4;strokeColor=#82b366;" parent="1" vertex="1">
          <mxGeometry x="-474" y="380.25" width="80" height="60" as="geometry" />
        </mxCell>
        <mxCell id="APLr1EpxhJmE-3xwTRBo-95" value="DOWNLOAD" style="rounded=0;whiteSpace=wrap;html=1;labelBackgroundColor=none;fillColor=#dae8fc;strokeColor=#6c8ebf;" parent="1" vertex="1">
          <mxGeometry x="-509" y="190" width="150" height="30" as="geometry" />
        </mxCell>
        <mxCell id="APLr1EpxhJmE-3xwTRBo-96" value="is_&lt;div&gt;downloaded&lt;/div&gt;" style="rhombus;whiteSpace=wrap;html=1;rounded=0;labelBackgroundColor=none;fillColor=#d5e8d4;strokeColor=#82b366;" parent="1" vertex="1">
          <mxGeometry x="-479" y="-78.19" width="90" height="68" as="geometry" />
        </mxCell>
        <mxCell id="APLr1EpxhJmE-3xwTRBo-98" value="" style="endArrow=none;html=1;rounded=0;exitX=0.5;exitY=0;exitDx=0;exitDy=0;labelBackgroundColor=none;fontColor=default;entryX=0.5;entryY=1;entryDx=0;entryDy=0;" parent="1" source="APLr1EpxhJmE-3xwTRBo-93" target="APLr1EpxhJmE-3xwTRBo-95" edge="1">
          <mxGeometry width="50" height="50" relative="1" as="geometry">
            <mxPoint x="-130" y="280" as="sourcePoint" />
            <mxPoint x="-424.9999999999998" y="222" as="targetPoint" />
          </mxGeometry>
        </mxCell>
        <mxCell id="APLr1EpxhJmE-3xwTRBo-99" value="" style="endArrow=none;html=1;rounded=0;entryX=0.5;entryY=1;entryDx=0;entryDy=0;labelBackgroundColor=none;fontColor=default;exitX=0.5;exitY=0;exitDx=0;exitDy=0;" parent="1" source="APLr1EpxhJmE-3xwTRBo-95" target="APLr1EpxhJmE-3xwTRBo-96" edge="1">
          <mxGeometry width="50" height="50" relative="1" as="geometry">
            <mxPoint x="-430" y="180" as="sourcePoint" />
            <mxPoint x="-60" y="100" as="targetPoint" />
          </mxGeometry>
        </mxCell>
        <mxCell id="APLr1EpxhJmE-3xwTRBo-101" value="" style="endArrow=none;html=1;rounded=0;exitX=0.5;exitY=0;exitDx=0;exitDy=0;labelBackgroundColor=none;fontColor=default;" parent="1" source="APLr1EpxhJmE-3xwTRBo-96" edge="1">
          <mxGeometry width="50" height="50" relative="1" as="geometry">
            <mxPoint x="-80" y="20" as="sourcePoint" />
            <mxPoint x="130" y="-80" as="targetPoint" />
            <Array as="points">
              <mxPoint x="180" y="-80" />
              <mxPoint x="160" y="-80" />
              <mxPoint x="190" y="-80" />
            </Array>
          </mxGeometry>
        </mxCell>
        <mxCell id="JHPqy8Dp3YrIBCPP1G-f-1" value="app_id" style="ellipse;whiteSpace=wrap;html=1;fontStyle=1;fontSize=19;textShadow=0;labelBorderColor=none;labelBackgroundColor=none;fillColor=#fff2cc;strokeColor=#d6b656;" parent="1" vertex="1">
          <mxGeometry x="10" y="300" width="80" height="40" as="geometry" />
        </mxCell>
        <mxCell id="UcsZyi-cuLeqjGl8sbzW-21" value="app_name" style="ellipse;whiteSpace=wrap;html=1;fillColor=#fff2cc;strokeColor=#d6b656;" parent="1" vertex="1">
          <mxGeometry x="43.5" y="365.19" width="75" height="38.81" as="geometry" />
        </mxCell>
        <mxCell id="UcsZyi-cuLeqjGl8sbzW-22" value="description" style="ellipse;whiteSpace=wrap;html=1;fillColor=#fff2cc;strokeColor=#d6b656;" parent="1" vertex="1">
          <mxGeometry x="145" y="378.25" width="75" height="36" as="geometry" />
        </mxCell>
        <mxCell id="UcsZyi-cuLeqjGl8sbzW-23" value="&lt;font style=&quot;font-size: 11px;&quot;&gt;intial_realease&lt;/font&gt;" style="ellipse;whiteSpace=wrap;html=1;fillColor=#fff2cc;strokeColor=#d6b656;" parent="1" vertex="1">
          <mxGeometry x="422" y="379.25" width="78" height="40.75" as="geometry" />
        </mxCell>
        <mxCell id="UcsZyi-cuLeqjGl8sbzW-24" value="price" style="ellipse;whiteSpace=wrap;html=1;fillColor=#fff2cc;strokeColor=#d6b656;" parent="1" vertex="1">
          <mxGeometry x="480" y="307.19" width="80" height="32.81" as="geometry" />
        </mxCell>
        <mxCell id="UcsZyi-cuLeqjGl8sbzW-25" value="" style="endArrow=none;html=1;rounded=0;entryX=0.5;entryY=1;entryDx=0;entryDy=0;exitX=0.5;exitY=0;exitDx=0;exitDy=0;" parent="1" source="APLr1EpxhJmE-3xwTRBo-72" target="AGb_sH1yF5Gb_Zde1yTd-3" edge="1">
          <mxGeometry width="50" height="50" relative="1" as="geometry">
            <mxPoint x="480" y="460" as="sourcePoint" />
            <mxPoint x="530" y="410" as="targetPoint" />
          </mxGeometry>
        </mxCell>
        <mxCell id="UcsZyi-cuLeqjGl8sbzW-28" value="" style="endArrow=none;html=1;rounded=0;exitX=1;exitY=0.5;exitDx=0;exitDy=0;entryX=0;entryY=1;entryDx=0;entryDy=0;" parent="1" source="JHPqy8Dp3YrIBCPP1G-f-1" target="AGb_sH1yF5Gb_Zde1yTd-3" edge="1">
          <mxGeometry width="50" height="50" relative="1" as="geometry">
            <mxPoint x="160" y="330" as="sourcePoint" />
            <mxPoint x="210" y="280" as="targetPoint" />
          </mxGeometry>
        </mxCell>
        <mxCell id="UcsZyi-cuLeqjGl8sbzW-29" value="" style="endArrow=none;html=1;rounded=0;entryX=0.75;entryY=1;entryDx=0;entryDy=0;exitX=0.5;exitY=0;exitDx=0;exitDy=0;" parent="1" source="UcsZyi-cuLeqjGl8sbzW-23" target="AGb_sH1yF5Gb_Zde1yTd-3" edge="1">
          <mxGeometry width="50" height="50" relative="1" as="geometry">
            <mxPoint x="430" y="380" as="sourcePoint" />
            <mxPoint x="480" y="330" as="targetPoint" />
          </mxGeometry>
        </mxCell>
        <mxCell id="UcsZyi-cuLeqjGl8sbzW-31" value="" style="endArrow=none;html=1;rounded=0;exitX=0;exitY=0.5;exitDx=0;exitDy=0;" parent="1" source="UcsZyi-cuLeqjGl8sbzW-24" edge="1">
          <mxGeometry width="50" height="50" relative="1" as="geometry">
            <mxPoint x="300" y="350" as="sourcePoint" />
            <mxPoint x="350" y="300" as="targetPoint" />
          </mxGeometry>
        </mxCell>
        <mxCell id="UcsZyi-cuLeqjGl8sbzW-35" value="" style="endArrow=none;html=1;rounded=0;" parent="1" source="UcsZyi-cuLeqjGl8sbzW-22" edge="1">
          <mxGeometry width="50" height="50" relative="1" as="geometry">
            <mxPoint x="430" y="380" as="sourcePoint" />
            <mxPoint x="280" y="300" as="targetPoint" />
          </mxGeometry>
        </mxCell>
        <mxCell id="UcsZyi-cuLeqjGl8sbzW-36" value="" style="endArrow=none;html=1;rounded=0;entryX=0.25;entryY=1;entryDx=0;entryDy=0;exitX=1;exitY=0;exitDx=0;exitDy=0;" parent="1" source="UcsZyi-cuLeqjGl8sbzW-21" target="AGb_sH1yF5Gb_Zde1yTd-3" edge="1">
          <mxGeometry width="50" height="50" relative="1" as="geometry">
            <mxPoint x="430" y="380" as="sourcePoint" />
            <mxPoint x="480" y="330" as="targetPoint" />
          </mxGeometry>
        </mxCell>
        <mxCell id="UcsZyi-cuLeqjGl8sbzW-38" value="app_size" style="ellipse;whiteSpace=wrap;html=1;fillColor=#fff2cc;strokeColor=#d6b656;" parent="1" vertex="1">
          <mxGeometry x="320" y="380.25" width="70" height="34" as="geometry" />
        </mxCell>
        <mxCell id="UcsZyi-cuLeqjGl8sbzW-39" value="" style="endArrow=none;html=1;rounded=0;entryX=0.5;entryY=1;entryDx=0;entryDy=0;exitX=0.5;exitY=0;exitDx=0;exitDy=0;" parent="1" source="UcsZyi-cuLeqjGl8sbzW-38" target="AGb_sH1yF5Gb_Zde1yTd-3" edge="1">
          <mxGeometry width="50" height="50" relative="1" as="geometry">
            <mxPoint x="430" y="380" as="sourcePoint" />
            <mxPoint x="480" y="330" as="targetPoint" />
          </mxGeometry>
        </mxCell>
        <mxCell id="UcsZyi-cuLeqjGl8sbzW-41" value="" style="endArrow=none;html=1;rounded=0;entryX=1;entryY=1;entryDx=0;entryDy=0;exitX=0;exitY=1;exitDx=0;exitDy=0;" parent="1" source="JHPqy8Dp3YrIBCPP1G-f-1" target="JHPqy8Dp3YrIBCPP1G-f-1" edge="1">
          <mxGeometry width="50" height="50" relative="1" as="geometry">
            <mxPoint x="530" y="400" as="sourcePoint" />
            <mxPoint x="580" y="350" as="targetPoint" />
          </mxGeometry>
        </mxCell>
        <mxCell id="UcsZyi-cuLeqjGl8sbzW-54" value="permission_id" style="ellipse;whiteSpace=wrap;html=1;fontSize=15;fontStyle=1;fillColor=#fff2cc;strokeColor=#d6b656;" parent="1" vertex="1">
          <mxGeometry x="920" y="320" width="110" height="52.81" as="geometry" />
        </mxCell>
        <mxCell id="UcsZyi-cuLeqjGl8sbzW-55" value="permission_name" style="ellipse;whiteSpace=wrap;html=1;fillColor=#fff2cc;strokeColor=#d6b656;" parent="1" vertex="1">
          <mxGeometry x="1055" y="330" width="100" height="42.81" as="geometry" />
        </mxCell>
        <mxCell id="UcsZyi-cuLeqjGl8sbzW-56" value="permission_&lt;span style=&quot;background-color: transparent; color: light-dark(rgb(0, 0, 0), rgb(255, 255, 255));&quot;&gt;type&lt;/span&gt;" style="ellipse;whiteSpace=wrap;html=1;fillColor=#fff2cc;strokeColor=#d6b656;" parent="1" vertex="1">
          <mxGeometry x="1241" y="322.38" width="110" height="42.81" as="geometry" />
        </mxCell>
        <mxCell id="UcsZyi-cuLeqjGl8sbzW-58" value="" style="endArrow=none;html=1;rounded=0;exitX=0.5;exitY=0;exitDx=0;exitDy=0;entryX=0.073;entryY=1.097;entryDx=0;entryDy=0;entryPerimeter=0;" parent="1" source="UcsZyi-cuLeqjGl8sbzW-54" target="APLr1EpxhJmE-3xwTRBo-6" edge="1">
          <mxGeometry width="50" height="50" relative="1" as="geometry">
            <mxPoint x="970" y="260" as="sourcePoint" />
            <mxPoint x="1040" y="200" as="targetPoint" />
          </mxGeometry>
        </mxCell>
        <mxCell id="UcsZyi-cuLeqjGl8sbzW-59" value="" style="endArrow=none;html=1;rounded=0;exitX=0.5;exitY=0;exitDx=0;exitDy=0;entryX=0.5;entryY=1;entryDx=0;entryDy=0;" parent="1" source="UcsZyi-cuLeqjGl8sbzW-55" target="APLr1EpxhJmE-3xwTRBo-6" edge="1">
          <mxGeometry width="50" height="50" relative="1" as="geometry">
            <mxPoint x="1060" y="250" as="sourcePoint" />
            <mxPoint x="1110" y="200" as="targetPoint" />
          </mxGeometry>
        </mxCell>
        <mxCell id="UcsZyi-cuLeqjGl8sbzW-60" value="" style="endArrow=none;html=1;rounded=0;entryX=0.294;entryY=0.058;entryDx=0;entryDy=0;entryPerimeter=0;exitX=0.873;exitY=1.029;exitDx=0;exitDy=0;exitPerimeter=0;" parent="1" source="APLr1EpxhJmE-3xwTRBo-6" target="UcsZyi-cuLeqjGl8sbzW-56" edge="1">
          <mxGeometry width="50" height="50" relative="1" as="geometry">
            <mxPoint x="1160" y="200" as="sourcePoint" />
            <mxPoint x="1250" y="260" as="targetPoint" />
          </mxGeometry>
        </mxCell>
        <mxCell id="UcsZyi-cuLeqjGl8sbzW-63" value="category_id" style="ellipse;whiteSpace=wrap;html=1;fontSize=15;fontStyle=1;fillColor=#fff2cc;strokeColor=#d6b656;" parent="1" vertex="1">
          <mxGeometry x="1050" y="-54.81" width="110" height="52.81" as="geometry" />
        </mxCell>
        <mxCell id="UcsZyi-cuLeqjGl8sbzW-64" value="category_name" style="ellipse;whiteSpace=wrap;html=1;fillColor=#fff2cc;strokeColor=#d6b656;" parent="1" vertex="1">
          <mxGeometry x="1230" y="-53" width="100" height="42.81" as="geometry" />
        </mxCell>
        <mxCell id="UcsZyi-cuLeqjGl8sbzW-65" value="" style="endArrow=none;html=1;rounded=0;entryX=0.024;entryY=0.728;entryDx=0;entryDy=0;entryPerimeter=0;exitX=0.977;exitY=0.728;exitDx=0;exitDy=0;exitPerimeter=0;" parent="1" source="UcsZyi-cuLeqjGl8sbzW-63" target="UcsZyi-cuLeqjGl8sbzW-63" edge="1">
          <mxGeometry width="50" height="50" relative="1" as="geometry">
            <mxPoint x="1150" y="-20" as="sourcePoint" />
            <mxPoint x="1050" y="-13" as="targetPoint" />
          </mxGeometry>
        </mxCell>
        <mxCell id="UcsZyi-cuLeqjGl8sbzW-66" value="" style="endArrow=none;html=1;rounded=0;exitX=0.5;exitY=0;exitDx=0;exitDy=0;entryX=0.5;entryY=1;entryDx=0;entryDy=0;" parent="1" source="APLr1EpxhJmE-3xwTRBo-42" target="UcsZyi-cuLeqjGl8sbzW-63" edge="1">
          <mxGeometry width="50" height="50" relative="1" as="geometry">
            <mxPoint x="1050" y="50" as="sourcePoint" />
            <mxPoint x="1105" y="-10" as="targetPoint" />
          </mxGeometry>
        </mxCell>
        <mxCell id="UcsZyi-cuLeqjGl8sbzW-67" value="" style="endArrow=none;html=1;rounded=0;entryX=0.5;entryY=1;entryDx=0;entryDy=0;exitX=1;exitY=0;exitDx=0;exitDy=0;" parent="1" source="APLr1EpxhJmE-3xwTRBo-42" target="UcsZyi-cuLeqjGl8sbzW-64" edge="1">
          <mxGeometry width="50" height="50" relative="1" as="geometry">
            <mxPoint x="1160" y="80" as="sourcePoint" />
            <mxPoint x="780" y="80" as="targetPoint" />
          </mxGeometry>
        </mxCell>
        <mxCell id="UcsZyi-cuLeqjGl8sbzW-72" value="required_since" style="ellipse;whiteSpace=wrap;html=1;fillColor=#fff2cc;strokeColor=#d6b656;" parent="1" vertex="1">
          <mxGeometry x="650" y="355.94" width="90" height="35.62" as="geometry" />
        </mxCell>
        <mxCell id="UcsZyi-cuLeqjGl8sbzW-73" value="grant_by" style="ellipse;whiteSpace=wrap;html=1;fillColor=#fff2cc;strokeColor=#d6b656;" parent="1" vertex="1">
          <mxGeometry x="810" y="344.63" width="80" height="30" as="geometry" />
        </mxCell>
        <mxCell id="UcsZyi-cuLeqjGl8sbzW-74" value="" style="endArrow=none;html=1;rounded=0;exitX=0.5;exitY=0;exitDx=0;exitDy=0;entryX=0.5;entryY=1;entryDx=0;entryDy=0;" parent="1" source="UcsZyi-cuLeqjGl8sbzW-72" target="AGb_sH1yF5Gb_Zde1yTd-7" edge="1">
          <mxGeometry width="50" height="50" relative="1" as="geometry">
            <mxPoint x="660" y="260" as="sourcePoint" />
            <mxPoint x="660" y="250" as="targetPoint" />
          </mxGeometry>
        </mxCell>
        <mxCell id="UcsZyi-cuLeqjGl8sbzW-76" value="" style="endArrow=none;html=1;rounded=0;entryX=0.5;entryY=1;entryDx=0;entryDy=0;" parent="1" source="UcsZyi-cuLeqjGl8sbzW-73" target="AGb_sH1yF5Gb_Zde1yTd-7" edge="1">
          <mxGeometry width="50" height="50" relative="1" as="geometry">
            <mxPoint x="670" y="280" as="sourcePoint" />
            <mxPoint x="712" y="265" as="targetPoint" />
          </mxGeometry>
        </mxCell>
        <mxCell id="UcsZyi-cuLeqjGl8sbzW-80" value="assigned_on" style="ellipse;whiteSpace=wrap;html=1;fillColor=#fff2cc;strokeColor=#d6b656;" parent="1" vertex="1">
          <mxGeometry x="655" y="-63.19" width="80" height="38" as="geometry" />
        </mxCell>
        <mxCell id="UcsZyi-cuLeqjGl8sbzW-81" value="assigned_by" style="ellipse;whiteSpace=wrap;html=1;fillColor=#fff2cc;strokeColor=#d6b656;" parent="1" vertex="1">
          <mxGeometry x="810" y="-13" width="80" height="33" as="geometry" />
        </mxCell>
        <mxCell id="UcsZyi-cuLeqjGl8sbzW-82" value="" style="endArrow=none;html=1;rounded=0;exitX=0.5;exitY=0;exitDx=0;exitDy=0;entryX=0.5;entryY=1;entryDx=0;entryDy=0;" parent="1" source="APLr1EpxhJmE-3xwTRBo-41" target="UcsZyi-cuLeqjGl8sbzW-80" edge="1">
          <mxGeometry width="50" height="50" relative="1" as="geometry">
            <mxPoint x="647.3999999999996" y="85.98999999999978" as="sourcePoint" />
            <mxPoint x="660" y="10" as="targetPoint" />
          </mxGeometry>
        </mxCell>
        <mxCell id="UcsZyi-cuLeqjGl8sbzW-83" value="" style="endArrow=none;html=1;rounded=0;entryX=0;entryY=1;entryDx=0;entryDy=0;exitX=0.5;exitY=0;exitDx=0;exitDy=0;" parent="1" source="APLr1EpxhJmE-3xwTRBo-41" target="UcsZyi-cuLeqjGl8sbzW-81" edge="1">
          <mxGeometry width="50" height="50" relative="1" as="geometry">
            <mxPoint x="700" y="80" as="sourcePoint" />
            <mxPoint x="660" y="160" as="targetPoint" />
          </mxGeometry>
        </mxCell>
        <mxCell id="UcsZyi-cuLeqjGl8sbzW-85" value="&lt;font style=&quot;font-size: 14px;&quot;&gt;version_code&lt;/font&gt;" style="ellipse;whiteSpace=wrap;html=1;fillColor=#fff2cc;strokeColor=#d6b656;" parent="1" vertex="1">
          <mxGeometry x="375" y="11.48" width="95" height="38.52" as="geometry" />
        </mxCell>
        <mxCell id="UcsZyi-cuLeqjGl8sbzW-86" value="&lt;font style=&quot;font-size: 13px;&quot;&gt;release_date&lt;/font&gt;" style="ellipse;whiteSpace=wrap;html=1;fillColor=#fff2cc;strokeColor=#d6b656;" parent="1" vertex="1">
          <mxGeometry x="380" y="-240" width="90" height="40" as="geometry" />
        </mxCell>
        <mxCell id="UcsZyi-cuLeqjGl8sbzW-88" value="&lt;font style=&quot;font-size: 14px;&quot;&gt;release_note&lt;/font&gt;" style="ellipse;whiteSpace=wrap;html=1;fillColor=#fff2cc;strokeColor=#d6b656;" parent="1" vertex="1">
          <mxGeometry x="230" y="-260" width="96" height="40" as="geometry" />
        </mxCell>
        <mxCell id="UcsZyi-cuLeqjGl8sbzW-90" value="" style="endArrow=none;html=1;rounded=0;entryX=0.5;entryY=1;entryDx=0;entryDy=0;" parent="1" target="UcsZyi-cuLeqjGl8sbzW-86" edge="1">
          <mxGeometry width="50" height="50" relative="1" as="geometry">
            <mxPoint x="370" y="-90" as="sourcePoint" />
            <mxPoint x="400" y="-160" as="targetPoint" />
          </mxGeometry>
        </mxCell>
        <mxCell id="UcsZyi-cuLeqjGl8sbzW-91" value="" style="endArrow=none;html=1;rounded=0;entryX=0.5;entryY=1;entryDx=0;entryDy=0;" parent="1" target="UcsZyi-cuLeqjGl8sbzW-88" edge="1">
          <mxGeometry width="50" height="50" relative="1" as="geometry">
            <mxPoint x="280" y="-100" as="sourcePoint" />
            <mxPoint x="410" y="-80" as="targetPoint" />
          </mxGeometry>
        </mxCell>
        <mxCell id="UcsZyi-cuLeqjGl8sbzW-92" value="" style="endArrow=none;html=1;rounded=0;exitX=0.669;exitY=0.976;exitDx=0;exitDy=0;exitPerimeter=0;" parent="1" source="APLr1EpxhJmE-3xwTRBo-52" target="UcsZyi-cuLeqjGl8sbzW-85" edge="1">
          <mxGeometry width="50" height="50" relative="1" as="geometry">
            <mxPoint x="330" y="-60" as="sourcePoint" />
            <mxPoint x="280" y="-160" as="targetPoint" />
          </mxGeometry>
        </mxCell>
        <mxCell id="UcsZyi-cuLeqjGl8sbzW-93" value="&lt;font style=&quot;font-size: 14px;&quot;&gt;&lt;b&gt;developer_id&lt;/b&gt;&lt;/font&gt;" style="ellipse;whiteSpace=wrap;html=1;fillColor=#fff2cc;strokeColor=#d6b656;" parent="1" vertex="1">
          <mxGeometry x="-290" y="-40" width="100" height="60" as="geometry" />
        </mxCell>
        <mxCell id="UcsZyi-cuLeqjGl8sbzW-95" value="" style="endArrow=none;html=1;rounded=0;entryX=0.979;entryY=0.729;entryDx=0;entryDy=0;entryPerimeter=0;exitX=0.075;exitY=0.684;exitDx=0;exitDy=0;exitPerimeter=0;" parent="1" source="UcsZyi-cuLeqjGl8sbzW-93" target="UcsZyi-cuLeqjGl8sbzW-93" edge="1">
          <mxGeometry width="50" height="50" relative="1" as="geometry">
            <mxPoint x="-210" y="90" as="sourcePoint" />
            <mxPoint x="-130" y="100" as="targetPoint" />
          </mxGeometry>
        </mxCell>
        <mxCell id="UcsZyi-cuLeqjGl8sbzW-100" value="" style="endArrow=none;html=1;rounded=0;exitX=1;exitY=0.5;exitDx=0;exitDy=0;entryX=0;entryY=0.5;entryDx=0;entryDy=0;" parent="1" source="UcsZyi-cuLeqjGl8sbzW-93" target="APLr1EpxhJmE-3xwTRBo-58" edge="1">
          <mxGeometry width="50" height="50" relative="1" as="geometry">
            <mxPoint x="-160" y="50" as="sourcePoint" />
            <mxPoint x="-110" as="targetPoint" />
          </mxGeometry>
        </mxCell>
        <mxCell id="UcsZyi-cuLeqjGl8sbzW-104" value="&lt;b&gt;&lt;font style=&quot;font-size: 16px;&quot;&gt;download_id&lt;/font&gt;&lt;/b&gt;" style="ellipse;whiteSpace=wrap;html=1;fillColor=#fff2cc;strokeColor=#d6b656;" parent="1" vertex="1">
          <mxGeometry x="-688" y="64.49" width="118" height="57.03" as="geometry" />
        </mxCell>
        <mxCell id="UcsZyi-cuLeqjGl8sbzW-105" value="" style="endArrow=none;html=1;rounded=0;exitX=0;exitY=1;exitDx=0;exitDy=0;entryX=1;entryY=1;entryDx=0;entryDy=0;" parent="1" source="UcsZyi-cuLeqjGl8sbzW-104" target="UcsZyi-cuLeqjGl8sbzW-104" edge="1">
          <mxGeometry width="50" height="50" relative="1" as="geometry">
            <mxPoint x="-570" y="170" as="sourcePoint" />
            <mxPoint x="-520" y="120" as="targetPoint" />
          </mxGeometry>
        </mxCell>
        <mxCell id="UcsZyi-cuLeqjGl8sbzW-107" value="download_date" style="ellipse;whiteSpace=wrap;html=1;fillColor=#fff2cc;strokeColor=#d6b656;" parent="1" vertex="1">
          <mxGeometry x="-701" y="174.06" width="100" height="45.94" as="geometry" />
        </mxCell>
        <mxCell id="UcsZyi-cuLeqjGl8sbzW-108" value="" style="endArrow=none;html=1;rounded=0;exitX=1;exitY=0.5;exitDx=0;exitDy=0;" parent="1" source="UcsZyi-cuLeqjGl8sbzW-107" edge="1">
          <mxGeometry width="50" height="50" relative="1" as="geometry">
            <mxPoint x="-560" y="250" as="sourcePoint" />
            <mxPoint x="-510" y="200" as="targetPoint" />
          </mxGeometry>
        </mxCell>
        <mxCell id="UcsZyi-cuLeqjGl8sbzW-110" value="device_type" style="ellipse;whiteSpace=wrap;html=1;fillColor=#fff2cc;strokeColor=#d6b656;" parent="1" vertex="1">
          <mxGeometry x="-640" y="310" width="100" height="45.94" as="geometry" />
        </mxCell>
        <mxCell id="UcsZyi-cuLeqjGl8sbzW-112" value="network_type" style="ellipse;whiteSpace=wrap;html=1;fillColor=#fff2cc;strokeColor=#d6b656;" parent="1" vertex="1">
          <mxGeometry x="-339" y="310" width="100" height="45.94" as="geometry" />
        </mxCell>
        <mxCell id="UcsZyi-cuLeqjGl8sbzW-113" value="download_&lt;span style=&quot;background-color: transparent; color: light-dark(rgb(0, 0, 0), rgb(255, 255, 255));&quot;&gt;status&lt;/span&gt;" style="ellipse;whiteSpace=wrap;html=1;fillColor=#fff2cc;strokeColor=#d6b656;" parent="1" vertex="1">
          <mxGeometry x="-270" y="182.03" width="100" height="45.94" as="geometry" />
        </mxCell>
        <mxCell id="UcsZyi-cuLeqjGl8sbzW-114" value="" style="endArrow=none;html=1;rounded=0;entryX=1;entryY=0.5;entryDx=0;entryDy=0;" parent="1" target="UcsZyi-cuLeqjGl8sbzW-104" edge="1">
          <mxGeometry width="50" height="50" relative="1" as="geometry">
            <mxPoint x="-440" y="190" as="sourcePoint" />
            <mxPoint x="-520" y="120" as="targetPoint" />
          </mxGeometry>
        </mxCell>
        <mxCell id="UcsZyi-cuLeqjGl8sbzW-115" value="" style="endArrow=none;html=1;rounded=0;entryX=1;entryY=0.5;entryDx=0;entryDy=0;" parent="1" source="UcsZyi-cuLeqjGl8sbzW-113" target="APLr1EpxhJmE-3xwTRBo-95" edge="1">
          <mxGeometry width="50" height="50" relative="1" as="geometry">
            <mxPoint x="-130" y="350" as="sourcePoint" />
            <mxPoint x="-350" y="200" as="targetPoint" />
          </mxGeometry>
        </mxCell>
        <mxCell id="UcsZyi-cuLeqjGl8sbzW-116" value="" style="endArrow=none;html=1;rounded=0;exitX=0.5;exitY=0;exitDx=0;exitDy=0;" parent="1" source="UcsZyi-cuLeqjGl8sbzW-110" edge="1">
          <mxGeometry width="50" height="50" relative="1" as="geometry">
            <mxPoint x="-130" y="350" as="sourcePoint" />
            <mxPoint x="-510" y="220" as="targetPoint" />
          </mxGeometry>
        </mxCell>
        <mxCell id="UcsZyi-cuLeqjGl8sbzW-118" value="" style="endArrow=none;html=1;rounded=0;exitX=1;exitY=1;exitDx=0;exitDy=0;entryX=0.5;entryY=0;entryDx=0;entryDy=0;" parent="1" source="APLr1EpxhJmE-3xwTRBo-95" target="UcsZyi-cuLeqjGl8sbzW-112" edge="1">
          <mxGeometry width="50" height="50" relative="1" as="geometry">
            <mxPoint x="-150" y="380" as="sourcePoint" />
            <mxPoint x="-100" y="400" as="targetPoint" />
          </mxGeometry>
        </mxCell>
        <mxCell id="UcsZyi-cuLeqjGl8sbzW-119" value="" style="endArrow=none;html=1;rounded=0;entryX=0.5;entryY=1;entryDx=0;entryDy=0;" parent="1" target="APLr1EpxhJmE-3xwTRBo-93" edge="1">
          <mxGeometry width="50" height="50" relative="1" as="geometry">
            <mxPoint x="-434" y="620" as="sourcePoint" />
            <mxPoint x="-430" y="440" as="targetPoint" />
          </mxGeometry>
        </mxCell>
        <mxCell id="UcsZyi-cuLeqjGl8sbzW-120" value="&lt;font style=&quot;font-size: 16px;&quot;&gt;&lt;b&gt;user_id&lt;/b&gt;&lt;/font&gt;" style="ellipse;whiteSpace=wrap;html=1;fillColor=#fff2cc;strokeColor=#d6b656;" parent="1" vertex="1">
          <mxGeometry x="-690" y="506" width="110" height="60" as="geometry" />
        </mxCell>
        <mxCell id="UcsZyi-cuLeqjGl8sbzW-121" value="" style="endArrow=none;html=1;rounded=0;exitX=0.95;exitY=0.682;exitDx=0;exitDy=0;exitPerimeter=0;entryX=0.026;entryY=0.698;entryDx=0;entryDy=0;entryPerimeter=0;" parent="1" source="UcsZyi-cuLeqjGl8sbzW-120" target="UcsZyi-cuLeqjGl8sbzW-120" edge="1">
          <mxGeometry width="50" height="50" relative="1" as="geometry">
            <mxPoint x="-240" y="470" as="sourcePoint" />
            <mxPoint x="-640" y="550" as="targetPoint" />
          </mxGeometry>
        </mxCell>
        <mxCell id="UcsZyi-cuLeqjGl8sbzW-122" value="user_name" style="ellipse;whiteSpace=wrap;html=1;fillColor=#fff2cc;strokeColor=#d6b656;" parent="1" vertex="1">
          <mxGeometry x="-670" y="620" width="90" height="40" as="geometry" />
        </mxCell>
        <mxCell id="UcsZyi-cuLeqjGl8sbzW-123" value="user_email" style="ellipse;whiteSpace=wrap;html=1;fillColor=#fff2cc;strokeColor=#d6b656;" parent="1" vertex="1">
          <mxGeometry x="-660" y="740" width="90" height="40" as="geometry" />
        </mxCell>
        <mxCell id="UcsZyi-cuLeqjGl8sbzW-124" value="user_&lt;span style=&quot;background-color: transparent; color: light-dark(rgb(0, 0, 0), rgb(255, 255, 255));&quot;&gt;country&lt;/span&gt;" style="ellipse;whiteSpace=wrap;html=1;fillColor=#fff2cc;strokeColor=#d6b656;" parent="1" vertex="1">
          <mxGeometry x="-500" y="760" width="90" height="40" as="geometry" />
        </mxCell>
        <mxCell id="UcsZyi-cuLeqjGl8sbzW-125" value="created_on" style="ellipse;whiteSpace=wrap;html=1;fillColor=#fff2cc;strokeColor=#d6b656;" parent="1" vertex="1">
          <mxGeometry x="-394" y="760" width="90" height="40" as="geometry" />
        </mxCell>
        <mxCell id="UcsZyi-cuLeqjGl8sbzW-126" value="" style="endArrow=none;html=1;rounded=0;exitX=1;exitY=0.5;exitDx=0;exitDy=0;" parent="1" source="UcsZyi-cuLeqjGl8sbzW-120" edge="1">
          <mxGeometry width="50" height="50" relative="1" as="geometry">
            <mxPoint x="-540" y="670" as="sourcePoint" />
            <mxPoint x="-490" y="620" as="targetPoint" />
          </mxGeometry>
        </mxCell>
        <mxCell id="UcsZyi-cuLeqjGl8sbzW-127" value="" style="endArrow=none;html=1;rounded=0;exitX=1;exitY=0.5;exitDx=0;exitDy=0;entryX=0;entryY=0.5;entryDx=0;entryDy=0;" parent="1" source="UcsZyi-cuLeqjGl8sbzW-122" target="APLr1EpxhJmE-3xwTRBo-67" edge="1">
          <mxGeometry width="50" height="50" relative="1" as="geometry">
            <mxPoint x="-240" y="580" as="sourcePoint" />
            <mxPoint x="-190" y="530" as="targetPoint" />
          </mxGeometry>
        </mxCell>
        <mxCell id="UcsZyi-cuLeqjGl8sbzW-128" value="" style="endArrow=none;html=1;rounded=0;exitX=1;exitY=0;exitDx=0;exitDy=0;entryX=0.25;entryY=1;entryDx=0;entryDy=0;" parent="1" source="UcsZyi-cuLeqjGl8sbzW-123" target="APLr1EpxhJmE-3xwTRBo-67" edge="1">
          <mxGeometry width="50" height="50" relative="1" as="geometry">
            <mxPoint x="-540" y="710" as="sourcePoint" />
            <mxPoint x="-490" y="660" as="targetPoint" />
          </mxGeometry>
        </mxCell>
        <mxCell id="UcsZyi-cuLeqjGl8sbzW-129" value="" style="endArrow=none;html=1;rounded=0;exitX=0.349;exitY=0.009;exitDx=0;exitDy=0;exitPerimeter=0;entryX=0.75;entryY=1;entryDx=0;entryDy=0;" parent="1" source="UcsZyi-cuLeqjGl8sbzW-125" target="APLr1EpxhJmE-3xwTRBo-67" edge="1">
          <mxGeometry width="50" height="50" relative="1" as="geometry">
            <mxPoint x="-420" y="710" as="sourcePoint" />
            <mxPoint x="-370" y="660" as="targetPoint" />
          </mxGeometry>
        </mxCell>
        <mxCell id="UcsZyi-cuLeqjGl8sbzW-130" value="" style="endArrow=none;html=1;rounded=0;exitX=0.439;exitY=0.956;exitDx=0;exitDy=0;exitPerimeter=0;entryX=0.5;entryY=0;entryDx=0;entryDy=0;" parent="1" source="APLr1EpxhJmE-3xwTRBo-67" target="UcsZyi-cuLeqjGl8sbzW-124" edge="1">
          <mxGeometry width="50" height="50" relative="1" as="geometry">
            <mxPoint x="-240" y="580" as="sourcePoint" />
            <mxPoint x="-440" y="750" as="targetPoint" />
          </mxGeometry>
        </mxCell>
        <mxCell id="UcsZyi-cuLeqjGl8sbzW-132" value="&lt;font style=&quot;font-size: 16px;&quot;&gt;&lt;b&gt;review_id&lt;/b&gt;&lt;/font&gt;" style="ellipse;whiteSpace=wrap;html=1;fillColor=#fff2cc;strokeColor=#d6b656;" parent="1" vertex="1">
          <mxGeometry x="72.5" y="510" width="117.5" height="60" as="geometry" />
        </mxCell>
        <mxCell id="UcsZyi-cuLeqjGl8sbzW-133" value="" style="endArrow=none;html=1;rounded=0;entryX=0.948;entryY=0.776;entryDx=0;entryDy=0;entryPerimeter=0;exitX=0.083;exitY=0.776;exitDx=0;exitDy=0;exitPerimeter=0;" parent="1" source="UcsZyi-cuLeqjGl8sbzW-132" target="UcsZyi-cuLeqjGl8sbzW-132" edge="1">
          <mxGeometry width="50" height="50" relative="1" as="geometry">
            <mxPoint x="80" y="560" as="sourcePoint" />
            <mxPoint x="130" y="510" as="targetPoint" />
          </mxGeometry>
        </mxCell>
        <mxCell id="UcsZyi-cuLeqjGl8sbzW-134" value="" style="endArrow=none;html=1;rounded=0;exitX=0;exitY=0;exitDx=0;exitDy=0;entryX=1;entryY=1;entryDx=0;entryDy=0;" parent="1" source="APLr1EpxhJmE-3xwTRBo-69" target="UcsZyi-cuLeqjGl8sbzW-132" edge="1">
          <mxGeometry width="50" height="50" relative="1" as="geometry">
            <mxPoint x="130" y="610" as="sourcePoint" />
            <mxPoint x="180" y="560" as="targetPoint" />
          </mxGeometry>
        </mxCell>
        <mxCell id="UcsZyi-cuLeqjGl8sbzW-135" value="rating" style="ellipse;whiteSpace=wrap;html=1;fillColor=#fff2cc;strokeColor=#d6b656;" parent="1" vertex="1">
          <mxGeometry x="72.5" y="685" width="87.5" height="45" as="geometry" />
        </mxCell>
        <mxCell id="UcsZyi-cuLeqjGl8sbzW-136" value="comment" style="ellipse;whiteSpace=wrap;html=1;fillColor=#fff2cc;strokeColor=#d6b656;" parent="1" vertex="1">
          <mxGeometry x="240" y="730" width="80" height="40" as="geometry" />
        </mxCell>
        <mxCell id="UcsZyi-cuLeqjGl8sbzW-137" value="review_date" style="ellipse;whiteSpace=wrap;html=1;fillColor=#fff2cc;strokeColor=#d6b656;" parent="1" vertex="1">
          <mxGeometry x="389.5" y="670" width="90.5" height="45" as="geometry" />
        </mxCell>
        <mxCell id="UcsZyi-cuLeqjGl8sbzW-138" value="" style="endArrow=none;html=1;rounded=0;exitX=0.93;exitY=0.32;exitDx=0;exitDy=0;exitPerimeter=0;" parent="1" source="UcsZyi-cuLeqjGl8sbzW-135" edge="1">
          <mxGeometry width="50" height="50" relative="1" as="geometry">
            <mxPoint x="180" y="710" as="sourcePoint" />
            <mxPoint x="230" y="660" as="targetPoint" />
          </mxGeometry>
        </mxCell>
        <mxCell id="UcsZyi-cuLeqjGl8sbzW-139" value="" style="endArrow=none;html=1;rounded=0;entryX=0.5;entryY=1;entryDx=0;entryDy=0;" parent="1" target="APLr1EpxhJmE-3xwTRBo-69" edge="1">
          <mxGeometry width="50" height="50" relative="1" as="geometry">
            <mxPoint x="280" y="728" as="sourcePoint" />
            <mxPoint x="280" y="660" as="targetPoint" />
          </mxGeometry>
        </mxCell>
        <mxCell id="UcsZyi-cuLeqjGl8sbzW-140" value="" style="endArrow=none;html=1;rounded=0;exitX=0;exitY=0.5;exitDx=0;exitDy=0;" parent="1" source="UcsZyi-cuLeqjGl8sbzW-137" edge="1">
          <mxGeometry width="50" height="50" relative="1" as="geometry">
            <mxPoint x="280" y="710" as="sourcePoint" />
            <mxPoint x="330" y="660" as="targetPoint" />
          </mxGeometry>
        </mxCell>
        <mxCell id="UcsZyi-cuLeqjGl8sbzW-158" value="" style="endArrow=none;html=1;rounded=0;entryX=1;entryY=1;entryDx=0;entryDy=0;exitX=0.5;exitY=0;exitDx=0;exitDy=0;" parent="1" source="UcsZyi-cuLeqjGl8sbzW-160" target="AGb_sH1yF5Gb_Zde1yTd-3" edge="1">
          <mxGeometry width="50" height="50" relative="1" as="geometry">
            <mxPoint x="790" y="508" as="sourcePoint" />
            <mxPoint x="570" y="440" as="targetPoint" />
            <Array as="points" />
          </mxGeometry>
        </mxCell>
        <mxCell id="UcsZyi-cuLeqjGl8sbzW-160" value="wish_list" style="rhombus;whiteSpace=wrap;html=1;fontSize=16;fillColor=#d5e8d4;strokeColor=#82b366;" parent="1" vertex="1">
          <mxGeometry x="760" y="530" width="100" height="105" as="geometry" />
        </mxCell>
        <mxCell id="UcsZyi-cuLeqjGl8sbzW-161" value="" style="endArrow=none;html=1;rounded=0;entryX=0.5;entryY=1;entryDx=0;entryDy=0;exitX=1;exitY=1;exitDx=0;exitDy=0;" parent="1" source="APLr1EpxhJmE-3xwTRBo-67" target="UcsZyi-cuLeqjGl8sbzW-160" edge="1">
          <mxGeometry width="50" height="50" relative="1" as="geometry">
            <mxPoint x="40" y="880" as="sourcePoint" />
            <mxPoint x="380" y="420" as="targetPoint" />
            <Array as="points">
              <mxPoint x="190" y="850" />
            </Array>
          </mxGeometry>
        </mxCell>
        <mxCell id="UcsZyi-cuLeqjGl8sbzW-162" value="&lt;font style=&quot;font-size: 16px;&quot;&gt;added_on&lt;/font&gt;" style="ellipse;whiteSpace=wrap;html=1;fillColor=#fff2cc;strokeColor=#d6b656;" parent="1" vertex="1">
          <mxGeometry x="1030" y="435.25" width="140" height="71" as="geometry" />
        </mxCell>
        <mxCell id="UcsZyi-cuLeqjGl8sbzW-163" value="&lt;font style=&quot;font-size: 16px;&quot;&gt;note&lt;/font&gt;" style="ellipse;whiteSpace=wrap;html=1;fillColor=#fff2cc;strokeColor=#d6b656;" parent="1" vertex="1">
          <mxGeometry x="1040" y="566" width="130" height="54" as="geometry" />
        </mxCell>
        <mxCell id="UcsZyi-cuLeqjGl8sbzW-164" value="" style="endArrow=none;html=1;rounded=0;entryX=0;entryY=0.5;entryDx=0;entryDy=0;" parent="1" target="UcsZyi-cuLeqjGl8sbzW-162" edge="1">
          <mxGeometry width="50" height="50" relative="1" as="geometry">
            <mxPoint x="860" y="580" as="sourcePoint" />
            <mxPoint x="910" y="530" as="targetPoint" />
          </mxGeometry>
        </mxCell>
        <mxCell id="UcsZyi-cuLeqjGl8sbzW-165" value="" style="endArrow=none;html=1;rounded=0;entryX=0;entryY=0.5;entryDx=0;entryDy=0;" parent="1" source="UcsZyi-cuLeqjGl8sbzW-160" target="UcsZyi-cuLeqjGl8sbzW-163" edge="1">
          <mxGeometry width="50" height="50" relative="1" as="geometry">
            <mxPoint x="860" y="632.5" as="sourcePoint" />
            <mxPoint x="930.7106781186548" y="582.5" as="targetPoint" />
          </mxGeometry>
        </mxCell>
        <mxCell id="UcsZyi-cuLeqjGl8sbzW-166" value="&lt;font style=&quot;font-size: 16px;&quot;&gt;status&lt;/font&gt;" style="ellipse;whiteSpace=wrap;html=1;fillColor=#fff2cc;strokeColor=#d6b656;" parent="1" vertex="1">
          <mxGeometry x="1035" y="685" width="125" height="65" as="geometry" />
        </mxCell>
        <mxCell id="UcsZyi-cuLeqjGl8sbzW-167" value="" style="endArrow=none;html=1;rounded=0;entryX=0;entryY=0.5;entryDx=0;entryDy=0;exitX=1;exitY=0.5;exitDx=0;exitDy=0;" parent="1" source="UcsZyi-cuLeqjGl8sbzW-160" target="UcsZyi-cuLeqjGl8sbzW-166" edge="1">
          <mxGeometry width="50" height="50" relative="1" as="geometry">
            <mxPoint x="980" y="770" as="sourcePoint" />
            <mxPoint x="1030" y="720" as="targetPoint" />
          </mxGeometry>
        </mxCell>
        <mxCell id="41McRAipoDSC1rPal7Cx-16" value="1" style="text;html=1;align=center;verticalAlign=middle;resizable=0;points=[];autosize=1;strokeColor=none;fillColor=none;" parent="1" vertex="1">
          <mxGeometry x="-125" y="-112" width="30" height="30" as="geometry" />
        </mxCell>
        <mxCell id="41McRAipoDSC1rPal7Cx-17" value="n" style="text;html=1;align=center;verticalAlign=middle;resizable=0;points=[];autosize=1;strokeColor=none;fillColor=none;" parent="1" vertex="1">
          <mxGeometry x="-435" y="58" width="30" height="30" as="geometry" />
        </mxCell>
        <mxCell id="41McRAipoDSC1rPal7Cx-18" value="m" style="text;html=1;align=center;verticalAlign=middle;resizable=0;points=[];autosize=1;strokeColor=none;fillColor=none;" parent="1" vertex="1">
          <mxGeometry x="-425" y="298" width="30" height="30" as="geometry" />
        </mxCell>
        <mxCell id="41McRAipoDSC1rPal7Cx-19" value="1" style="text;html=1;align=center;verticalAlign=middle;resizable=0;points=[];autosize=1;strokeColor=none;fillColor=none;" parent="1" vertex="1">
          <mxGeometry x="-435" y="508" width="30" height="30" as="geometry" />
        </mxCell>
        <mxCell id="41McRAipoDSC1rPal7Cx-21" value="n" style="text;html=1;align=center;verticalAlign=middle;resizable=0;points=[];autosize=1;strokeColor=none;fillColor=none;" parent="1" vertex="1">
          <mxGeometry x="55" y="608" width="30" height="30" as="geometry" />
        </mxCell>
        <mxCell id="41McRAipoDSC1rPal7Cx-22" value="m" style="text;html=1;align=center;verticalAlign=middle;resizable=0;points=[];autosize=1;strokeColor=none;fillColor=none;" parent="1" vertex="1">
          <mxGeometry x="275" y="558" width="30" height="30" as="geometry" />
        </mxCell>
        <mxCell id="41McRAipoDSC1rPal7Cx-23" value="1" style="text;html=1;align=center;verticalAlign=middle;resizable=0;points=[];autosize=1;strokeColor=none;fillColor=none;" parent="1" vertex="1">
          <mxGeometry x="275" y="408" width="30" height="30" as="geometry" />
        </mxCell>
        <mxCell id="41McRAipoDSC1rPal7Cx-24" value="m" style="text;html=1;align=center;verticalAlign=middle;resizable=0;points=[];autosize=1;strokeColor=none;fillColor=none;" parent="1" vertex="1">
          <mxGeometry x="677.5" y="435.25" width="30" height="30" as="geometry" />
        </mxCell>
        <mxCell id="41McRAipoDSC1rPal7Cx-25" value="n" style="text;html=1;align=center;verticalAlign=middle;resizable=0;points=[];autosize=1;strokeColor=none;fillColor=none;" parent="1" vertex="1">
          <mxGeometry x="295" y="818" width="30" height="30" as="geometry" />
        </mxCell>
        <mxCell id="RVKEQwkoEfg9QqrgXOvs-8" value="" style="endArrow=none;html=1;rounded=0;entryX=0.96;entryY=0.699;entryDx=0;entryDy=0;entryPerimeter=0;exitX=0.01;exitY=0.72;exitDx=0;exitDy=0;exitPerimeter=0;" parent="1" source="UcsZyi-cuLeqjGl8sbzW-54" target="UcsZyi-cuLeqjGl8sbzW-54" edge="1">
          <mxGeometry width="50" height="50" relative="1" as="geometry">
            <mxPoint x="930" y="360" as="sourcePoint" />
            <mxPoint x="980" y="310" as="targetPoint" />
          </mxGeometry>
        </mxCell>
        <mxCell id="RVKEQwkoEfg9QqrgXOvs-9" value="m" style="text;html=1;align=center;verticalAlign=middle;resizable=0;points=[];autosize=1;strokeColor=none;fillColor=none;" parent="1" vertex="1">
          <mxGeometry x="465" y="78" width="30" height="30" as="geometry" />
        </mxCell>
        <mxCell id="RVKEQwkoEfg9QqrgXOvs-10" value="n" style="text;html=1;align=center;verticalAlign=middle;resizable=0;points=[];autosize=1;strokeColor=none;fillColor=none;" parent="1" vertex="1">
          <mxGeometry x="875" y="78" width="30" height="30" as="geometry" />
        </mxCell>
        <mxCell id="RVKEQwkoEfg9QqrgXOvs-11" value="m" style="text;html=1;align=center;verticalAlign=middle;resizable=0;points=[];autosize=1;strokeColor=none;fillColor=none;" parent="1" vertex="1">
          <mxGeometry x="505" y="188" width="30" height="30" as="geometry" />
        </mxCell>
        <mxCell id="RVKEQwkoEfg9QqrgXOvs-12" value="n" style="text;html=1;align=center;verticalAlign=middle;resizable=0;points=[];autosize=1;strokeColor=none;fillColor=none;" parent="1" vertex="1">
          <mxGeometry x="895" y="188" width="30" height="30" as="geometry" />
        </mxCell>
        <mxCell id="RVKEQwkoEfg9QqrgXOvs-17" value="" style="endArrow=none;html=1;rounded=0;entryX=0;entryY=0.5;entryDx=0;entryDy=0;exitX=1;exitY=0.5;exitDx=0;exitDy=0;" parent="1" source="APLr1EpxhJmE-3xwTRBo-58" target="APLr1EpxhJmE-3xwTRBo-51" edge="1">
          <mxGeometry width="50" height="50" relative="1" as="geometry">
            <mxPoint x="70" y="180" as="sourcePoint" />
            <mxPoint x="240" y="30" as="targetPoint" />
            <Array as="points">
              <mxPoint x="90" y="50" />
            </Array>
          </mxGeometry>
        </mxCell>
        <mxCell id="RVKEQwkoEfg9QqrgXOvs-18" value="1" style="text;html=1;align=center;verticalAlign=middle;resizable=0;points=[];autosize=1;strokeColor=none;fillColor=none;" parent="1" vertex="1">
          <mxGeometry x="72.5" y="0.9300000000000002" width="30" height="30" as="geometry" />
        </mxCell>
        <mxCell id="RVKEQwkoEfg9QqrgXOvs-22" value="&lt;font style=&quot;font-size: 11px;&quot;&gt;has&lt;span style=&quot;background-color: transparent; color: light-dark(rgb(0, 0, 0), rgb(255, 255, 255));&quot;&gt;_versions&lt;/span&gt;&lt;/font&gt;" style="rhombus;whiteSpace=wrap;html=1;fillColor=#d5e8d4;strokeColor=#82b366;" parent="1" vertex="1">
          <mxGeometry x="240" y="69.36999999999999" width="80" height="83.26" as="geometry" />
        </mxCell>
        <mxCell id="RVKEQwkoEfg9QqrgXOvs-23" value="m" style="text;html=1;align=center;verticalAlign=middle;resizable=0;points=[];autosize=1;strokeColor=none;fillColor=none;" parent="1" vertex="1">
          <mxGeometry x="165" y="-42" width="30" height="30" as="geometry" />
        </mxCell>
        <mxCell id="RVKEQwkoEfg9QqrgXOvs-24" value="" style="endArrow=none;html=1;rounded=0;exitX=0.5;exitY=0;exitDx=0;exitDy=0;entryX=0.5;entryY=1;entryDx=0;entryDy=0;" parent="1" source="AGb_sH1yF5Gb_Zde1yTd-3" target="RVKEQwkoEfg9QqrgXOvs-22" edge="1">
          <mxGeometry width="50" height="50" relative="1" as="geometry">
            <mxPoint x="240" y="200" as="sourcePoint" />
            <mxPoint x="281" y="160" as="targetPoint" />
          </mxGeometry>
        </mxCell>
        <mxCell id="RVKEQwkoEfg9QqrgXOvs-25" value="" style="endArrow=none;html=1;rounded=0;entryX=0.5;entryY=1;entryDx=0;entryDy=0;exitX=0.5;exitY=0;exitDx=0;exitDy=0;" parent="1" source="RVKEQwkoEfg9QqrgXOvs-22" target="APLr1EpxhJmE-3xwTRBo-52" edge="1">
          <mxGeometry width="50" height="50" relative="1" as="geometry">
            <mxPoint x="280" y="60" as="sourcePoint" />
            <mxPoint x="280" y="-50" as="targetPoint" />
          </mxGeometry>
        </mxCell>
        <mxCell id="RVKEQwkoEfg9QqrgXOvs-26" value="1" style="text;html=1;align=center;verticalAlign=middle;resizable=0;points=[];autosize=1;strokeColor=none;fillColor=none;" parent="1" vertex="1">
          <mxGeometry x="245" y="178" width="30" height="30" as="geometry" />
        </mxCell>
        <mxCell id="RVKEQwkoEfg9QqrgXOvs-27" value="m" style="text;html=1;align=center;verticalAlign=middle;resizable=0;points=[];autosize=1;strokeColor=none;fillColor=none;" parent="1" vertex="1">
          <mxGeometry x="245" y="-2" width="30" height="30" as="geometry" />
        </mxCell>
        <mxCell id="RVKEQwkoEfg9QqrgXOvs-32" value="company_name" style="ellipse;whiteSpace=wrap;html=1;fillColor=#fff2cc;strokeColor=#d6b656;" parent="1" vertex="1">
          <mxGeometry x="-239" y="88" width="100" height="46" as="geometry" />
        </mxCell>
        <mxCell id="RVKEQwkoEfg9QqrgXOvs-33" value="devloper_email" style="ellipse;whiteSpace=wrap;html=1;fillColor=#fff2cc;strokeColor=#d6b656;" parent="1" vertex="1">
          <mxGeometry x="30.5" y="100" width="87" height="39" as="geometry" />
        </mxCell>
        <mxCell id="RVKEQwkoEfg9QqrgXOvs-34" value="" style="endArrow=none;html=1;rounded=0;exitX=0.627;exitY=0.065;exitDx=0;exitDy=0;exitPerimeter=0;entryX=0;entryY=1;entryDx=0;entryDy=0;" parent="1" source="RVKEQwkoEfg9QqrgXOvs-32" target="APLr1EpxhJmE-3xwTRBo-58" edge="1">
          <mxGeometry width="50" height="50" relative="1" as="geometry">
            <mxPoint x="-140" y="60" as="sourcePoint" />
            <mxPoint x="-90" y="10" as="targetPoint" />
          </mxGeometry>
        </mxCell>
        <mxCell id="RVKEQwkoEfg9QqrgXOvs-35" value="" style="endArrow=none;html=1;rounded=0;entryX=1;entryY=1;entryDx=0;entryDy=0;exitX=0.5;exitY=0;exitDx=0;exitDy=0;" parent="1" source="RVKEQwkoEfg9QqrgXOvs-33" target="APLr1EpxhJmE-3xwTRBo-58" edge="1">
          <mxGeometry width="50" height="50" relative="1" as="geometry">
            <mxPoint x="-20" y="80" as="sourcePoint" />
            <mxPoint x="30" y="30" as="targetPoint" />
          </mxGeometry>
        </mxCell>
        <mxCell id="RVKEQwkoEfg9QqrgXOvs-36" value="developer_name" style="ellipse;whiteSpace=wrap;html=1;fillColor=#fff2cc;strokeColor=#d6b656;" parent="1" vertex="1">
          <mxGeometry x="-100" y="100" width="95" height="42" as="geometry" />
        </mxCell>
        <mxCell id="RVKEQwkoEfg9QqrgXOvs-55" value="1" style="text;html=1;align=center;verticalAlign=middle;resizable=0;points=[];autosize=1;strokeColor=none;fillColor=none;" parent="1" vertex="1">
          <mxGeometry x="-265" y="598" width="30" height="30" as="geometry" />
        </mxCell>
        <mxCell id="RVKEQwkoEfg9QqrgXOvs-56" value="" style="endArrow=none;html=1;rounded=0;exitX=0;exitY=1;exitDx=0;exitDy=0;entryX=1;entryY=1;entryDx=0;entryDy=0;elbow=vertical;" parent="1" source="UcsZyi-cuLeqjGl8sbzW-85" target="UcsZyi-cuLeqjGl8sbzW-85" edge="1">
          <mxGeometry width="50" height="50" relative="1" as="geometry">
            <mxPoint x="270" y="-130" as="sourcePoint" />
            <mxPoint x="320" y="-180" as="targetPoint" />
          </mxGeometry>
        </mxCell>
        <mxCell id="RVKEQwkoEfg9QqrgXOvs-58" value="is_available" style="ellipse;whiteSpace=wrap;html=1;fillColor=#fff2cc;strokeColor=#d6b656;" parent="1" vertex="1">
          <mxGeometry x="85" y="-230" width="87" height="40" as="geometry" />
        </mxCell>
        <mxCell id="RVKEQwkoEfg9QqrgXOvs-59" value="" style="endArrow=none;html=1;rounded=0;entryX=1;entryY=1;entryDx=0;entryDy=0;exitX=0.25;exitY=0;exitDx=0;exitDy=0;" parent="1" source="APLr1EpxhJmE-3xwTRBo-52" target="RVKEQwkoEfg9QqrgXOvs-58" edge="1">
          <mxGeometry width="50" height="50" relative="1" as="geometry">
            <mxPoint x="150" y="-100" as="sourcePoint" />
            <mxPoint x="200" y="-150" as="targetPoint" />
          </mxGeometry>
        </mxCell>
        <mxCell id="T4KT5_n5GKKo_pw7ptxL-1" value="" style="endArrow=none;html=1;rounded=0;entryX=0.419;entryY=0.943;entryDx=0;entryDy=0;entryPerimeter=0;exitX=0.461;exitY=0.022;exitDx=0;exitDy=0;exitPerimeter=0;" parent="1" source="AGb_sH1yF5Gb_Zde1yTd-3" target="RVKEQwkoEfg9QqrgXOvs-22" edge="1">
          <mxGeometry width="50" height="50" relative="1" as="geometry">
            <mxPoint x="274" y="250" as="sourcePoint" />
            <mxPoint x="270" y="150" as="targetPoint" />
          </mxGeometry>
        </mxCell>
        <mxCell id="T4KT5_n5GKKo_pw7ptxL-2" value="" style="endArrow=none;html=1;rounded=0;exitX=0.9;exitY=0.663;exitDx=0;exitDy=0;exitPerimeter=0;entryX=0;entryY=0.75;entryDx=0;entryDy=0;" parent="1" source="APLr1EpxhJmE-3xwTRBo-68" target="APLr1EpxhJmE-3xwTRBo-69" edge="1">
          <mxGeometry width="50" height="50" relative="1" as="geometry">
            <mxPoint x="170" y="700" as="sourcePoint" />
            <mxPoint x="220" y="650" as="targetPoint" />
          </mxGeometry>
        </mxCell>
        <mxCell id="T4KT5_n5GKKo_pw7ptxL-3" value="" style="endArrow=none;html=1;rounded=0;exitX=0.362;exitY=0.092;exitDx=0;exitDy=0;exitPerimeter=0;" parent="1" source="APLr1EpxhJmE-3xwTRBo-93" edge="1">
          <mxGeometry width="50" height="50" relative="1" as="geometry">
            <mxPoint x="-490" y="270" as="sourcePoint" />
            <mxPoint x="-445" y="220" as="targetPoint" />
          </mxGeometry>
        </mxCell>
        <mxCell id="T4KT5_n5GKKo_pw7ptxL-4" value="" style="endArrow=none;html=1;rounded=0;entryX=0.417;entryY=1.039;entryDx=0;entryDy=0;entryPerimeter=0;" parent="1" target="APLr1EpxhJmE-3xwTRBo-52" edge="1">
          <mxGeometry width="50" height="50" relative="1" as="geometry">
            <mxPoint x="180" y="30" as="sourcePoint" />
            <mxPoint x="250" y="-30" as="targetPoint" />
          </mxGeometry>
        </mxCell>
      </root>
    </mxGraphModel>
  </diagram>
</mxfile>
